# xmcd CD database file
#
# Track frame offsets:
#	150
#	8918
#	24929
#	42360
#	59217
#	76550
#	92274
#	108218
#	130556
#	146625
#	162627
#
# Disc length: 2420 seconds
#
# Revision: 0
# Processed by: cddbd v1.5.2PL0 Copyright (c) Steve Scherf et al.
# Submitted via: CDex 1.51
#
DISCID=8009720b
DTITLE=Via Rei - W Pogoni Za ...
DYEAR=2009
DGENRE=Jazz
TTITLE0=Taki ma³y...
TTITLE1=malutki jazz
TTITLE2=W pogoni
TTITLE3=Wujaszek
TTITLE4=Zawias
TTITLE5=Pro Pain
TTITLE6=Za duzo
TTITLE7=Duzy jazz
TTITLE8=Nowy czas
TTITLE9=Specja³
TTITLE10=Jarzmo
EXTD=YEAR: 2009
EXTT0=
EXTT1=
EXTT2=
EXTT3=
EXTT4=
EXTT5=
EXTT6=
EXTT7=
EXTT8=
EXTT9=
EXTT10=
PLAYORDER=
